<svg width="50" height="50" viewBox="0 0 50 50" fill="none" xmlns="http://www.w3.org/2000/svg">
<g id="vuesax/linear/user-octagon">
<g id="user-octagon">
<path id="Vector" d="M43.9167 17.8751V32.125C43.9167 34.4584 42.6667 36.6251 40.6458 37.8126L28.2708 44.9584C26.25 46.1251 23.75 46.1251 21.7083 44.9584L9.33333 37.8126C7.3125 36.6459 6.0625 34.4792 6.0625 32.125V17.8751C6.0625 15.5418 7.3125 13.375 9.33333 12.1875L21.7083 5.04169C23.7292 3.87502 26.2292 3.87502 28.2708 5.04169L40.6458 12.1875C42.6667 13.375 43.9167 15.5209 43.9167 17.8751Z" stroke="#007BFF" stroke-width="1.5" stroke-linecap="round" stroke-linejoin="round"/>
<g id="Group">
<path id="Vector_2" d="M24.9999 22.9167C27.6808 22.9167 29.8541 20.7433 29.8541 18.0624C29.8541 15.3816 27.6808 13.2084 24.9999 13.2084C22.319 13.2084 20.1458 15.3816 20.1458 18.0624C20.1458 20.7433 22.319 22.9167 24.9999 22.9167Z" stroke="#007BFF" stroke-width="1.5" stroke-linecap="round" stroke-linejoin="round"/>
<path id="Vector_3" d="M33.3333 34.7082C33.3333 30.9582 29.6041 27.9167 25 27.9167C20.3958 27.9167 16.6666 30.9582 16.6666 34.7082" stroke="#007BFF" stroke-width="1.5" stroke-linecap="round" stroke-linejoin="round"/>
</g>
</g>
</g>
</svg>
